<?xml version="1.0" encoding="utf-8"?>
<!-- Generator: Adobe Illustrator 20.1.0, SVG Export Plug-In . SVG Version: 6.00 Build 0)  -->
<svg version="1.1" id="White_logo" xmlns="http://www.w3.org/2000/svg" xmlns:xlink="http://www.w3.org/1999/xlink" x="0px" y="0px"
	 viewBox="0 0 162.3 75" style="enable-background:new 0 0 162.3 75;" xml:space="preserve">
<style type="text/css">
	.st0{fill:#FFFFFF;}
</style>
<title>dm logo-white-1116</title>
<g>
	<polygon class="st0" points="133.9,3.6 97.4,41.8 130.3,41.8 136.6,35 	"/>
	<polygon class="st0" points="137.3,0.1 137.3,0.1 137.3,0.1 	"/>
	<polygon class="st0" points="93.8,0 93.8,0 68.8,9.2 96.6,40.9 113.9,22.8 	"/>
	<path class="st0" d="M137.3,0.1V75h25V8.5L137.3,0.1z"/>
	<polygon class="st0" points="68.8,75 93.8,50 93.8,39.3 68.8,15.4 	"/>
	<polygon class="st0" points="58.8,50 38.2,75 68.5,75 64,50 	"/>
	<polygon class="st0" points="0,50 0,75 0,75 29.6,75 32.6,75 32.7,75 57.6,50 	"/>
	<polygon class="st0" points="32.6,29.5 32.6,49 57.6,49 57.6,25 	"/>
	<polygon class="st0" points="57.6,25 0,25 0,0 32.7,0 	"/>
</g>
</svg>
