<svg id="Layer_1" data-name="Layer 1" xmlns="http://www.w3.org/2000/svg" viewBox="0 0 2330 161.67"><title>leopard-logo</title><rect y="147.95" width="2330" height="8.74" fill="#87a8d0"/><rect y="104.27" width="2330" height="35.02" fill="#0d1120"/><path d="M178.1,106.77V39h39.49V52.52h-23V66h18.79V79.7H194.55V93.29h26v13.48Z" fill="#0d1120"/><path d="M256.61,108.36c-18.69,0-36.42-13.69-36.42-35.56,0-21.66,17.73-35.35,36.42-35.35s36.51,13.69,36.51,35.35C293.12,94.67,275.4,108.36,256.61,108.36Zm0-56.48c-10.2,0-19.75,8.28-19.75,20.91s9.55,21,19.75,21,19.84-8.28,19.84-21S266.8,51.88,256.61,51.88Z" fill="#0d1120"/><path d="M316.91,80.12h-9v26.64H292.07V39h24.84c11.68,0,21.87,7.75,21.87,20.49S328.59,80.12,316.91,80.12ZM314.57,52h-6.68V67.17h6.68c4.25,0,8.5-2.34,8.5-7.64C323.07,54.43,318.82,52,314.57,52Z" fill="#0d1120"/><path d="M374.1,106.77l-5.3-14.12H346.5l-5.2,14.12h-15.5l26.64-68.26H363.8l26.64,68.26ZM359.87,66.64a68.37,68.37,0,0,1-2.12-6.9h-.22a47.79,47.79,0,0,1-2.12,6.9l-4.88,13.59h14.22Z" fill="#0d1120"/><path d="M426.65,106.77,408.39,80.12h-5.84v26.64H386.73V39H412c11.57,0,21.87,7.75,21.87,20.49a18.65,18.65,0,0,1-10.4,17L445,106.77ZM409.56,52h-7V67.17h7c4.25,0,8.49-2.34,8.49-7.64C418,54.43,413.81,52,409.56,52Z" fill="#0d1120"/><path d="M461.57,106.77H438.75V39h22.82c19.54,0,36.31,12.74,36.31,33.86S481.11,106.77,461.57,106.77Zm-1.91-53.61h-5.09V92.65h5.09c11.78,0,21.76-6.58,21.76-19.75S471.44,53.16,459.66,53.16Z" fill="#0d1120"/><path d="M130.21,106.77V39h16.45V92.65h27.18v14.12Z" fill="#0d1120"/><circle cx="78.45" cy="25.87" r="14.22" transform="translate(29.63 92.51) rotate(-72.02)" fill="#87a8d0" opacity="0.5"/><path d="M120.56,22a11.19,11.19,0,1,1-7.18-14.1A11.19,11.19,0,0,1,120.56,22Z" fill="#010101" opacity="0.75"/><circle cx="104.75" cy="52.08" r="17.58" transform="translate(22.88 135.64) rotate(-72.02)" fill="#87a8d0"/><path d="M496.17,40.17h-2v-.79H499v.79h-2v7.89h-.87Z" fill="#a5a7aa"/><path d="M500,39.38h1.34l3.15,7.38,3.16-7.38H509v8.67h-.87V40.34h0l-3.25,7.72h-.73l-3.22-7.72h0v7.72H500Z" fill="#a5a7aa"/><path d="M280.36,128.05h-8.5v-22.5h7.55c3.53,0,6.6,2.29,6.6,6a4.49,4.49,0,0,1-1.87,3.74,6.43,6.43,0,0,1,3.91,5.82C288,125.44,284.59,128.05,280.36,128.05Zm-1.8-18.48h-1.73v4.55h1.73a2.2,2.2,0,0,0,2.47-2.26A2.22,2.22,0,0,0,278.56,109.58Zm.88,8.57h-2.61V124h2.61c1.69,0,3.31-.88,3.31-2.89S281.14,118.14,279.44,118.14Z" fill="#fff"/><path d="M304.33,128.05l-6.07-8.85h-1.93v8.85h-5.26v-22.5h8.39c3.84,0,7.27,2.58,7.27,6.81a6.2,6.2,0,0,1-3.46,5.64l7.16,10Zm-5.68-18.2h-2.32v5h2.32a2.54,2.54,0,1,0,0-5Z" fill="#fff"/><path d="M326.08,128.05l-1.76-4.69h-7.41l-1.72,4.69H310l8.85-22.67h3.77l8.85,22.67Zm-4.72-13.33a21.22,21.22,0,0,1-.71-2.29h-.07a15.93,15.93,0,0,1-.7,2.29l-1.63,4.52H323Z" fill="#fff"/><path d="M352.17,128.3l-8.74-9.59c-1.41-1.55-3-3.46-4.19-4.94l-.08,0c.08,1.59.11,3.31.11,4.73v9.52h-5.47v-22.5h4.41l7.61,8.39c1.06,1.17,2.65,3,3.67,4.3l.07,0c-.07-1.34-.1-2.79-.1-4.2v-8.46h5.46V128.3Z" fill="#fff"/><path d="M366.37,128.05h-7.58v-22.5h7.58c6.49,0,12.06,4.23,12.06,11.25S372.86,128.05,366.37,128.05Zm-.63-17.81H364v13.12h1.69c3.91,0,7.23-2.18,7.23-6.56S369.65,110.24,365.73,110.24Z" fill="#fff"/><path d="M387.72,128.58a11.55,11.55,0,0,1-6.8-1.9l-.49-5.25a11.15,11.15,0,0,0,7.05,2.57c2,0,3.13-.85,3.13-2.18s-.77-2-3.56-3c-3.91-1.37-6-3.88-6-7,0-3.81,2.85-6.84,7.79-6.84a10,10,0,0,1,5.5,1.34l-.43,4.58a9.09,9.09,0,0,0-4.65-1.41c-1.93,0-2.85.85-2.85,1.94s.77,1.73,3.45,2.61c3.59,1.2,6.24,3.7,6.24,7.23C396.12,125.69,393.26,128.58,387.72,128.58Z" fill="#fff"/><path d="M400.06,133.34l-1.66-.28a11.83,11.83,0,0,0,2.61-5,3.82,3.82,0,0,1-2.29-2.43c0-1,2-2.85,2.92-2.85s2.93,1.76,2.93,2.85C404.58,127.59,402.25,131.37,400.06,133.34Z" fill="#fff"/><path d="M415.75,128.05v-22.5h5.46v22.5Z" fill="#fff"/><path d="M443.81,128.3l-8.75-9.59c-1.41-1.55-3-3.46-4.19-4.94l-.07,0c.07,1.59.1,3.31.1,4.73v9.52h-5.46v-22.5h4.41l7.62,8.39c1.05,1.17,2.65,3,3.66,4.3l.07,0c-.07-1.34-.1-2.79-.1-4.2v-8.46h5.46V128.3Z" fill="#fff"/><path d="M468,111.16a9.87,9.87,0,0,0-5.36-1.41c-4.09,0-7.37,2.78-7.37,7.05s3.28,7,7.55,7a10.17,10.17,0,0,0,5.53-1.34l-.46,4.9a11.73,11.73,0,0,1-5.88,1.2c-5.93,0-12.27-4.06-12.27-11.78S456.11,105,462,105a13.15,13.15,0,0,1,6.38,1.38Z" fill="#fff"/><path d="M473.48,128.55c-1,0-2.92-1.94-2.92-2.89s2-2.89,2.92-2.89,2.93,2,2.93,2.89S474.44,128.55,473.48,128.55Z" fill="#fff"/></svg>